<svg viewBox="0 0 24 24" fill="none" xmlns="http://www.w3.org/2000/svg">
  <circle cx="12" cy="12" r="12" fill="#1DB954"/>
  <path d="M17.732 14.382c-.3 0-.5-.1-.7-.3-1.9-1.2-4.4-1.4-7.2-.8-.3.1-.5-.1-.6-.4-.1-.3.1-.5.4-.6 3.1-.7 5.9-.4 8.1.9.2.1.3.4.2.7-.1.2-.3.5-.5.5zm1-2.7c-.4 0-.6-.1-.8-.3-2.2-1.4-5.6-1.8-8.2-1-.3.1-.6-.1-.7-.4-.1-.3.1-.6.4-.7 3-.9 6.9-.5 9.4 1.1.3.2.4.5.2.8-.1.3-.4.5-.7.5zm.9-2.8c-.5 0-.7-.2-.9-.4-2.7-1.6-7.1-1.7-9.7-.9-.4.1-.7-.1-.8-.5-.1-.4.1-.7.5-.8 3-.9 7.8-.7 10.9 1.1.3.2.4.6.2.9-.2.4-.5.6-.8.6z" fill="white"/>
</svg>